<svg width="1440" height="281" viewBox="0 0 1440 281" fill="none" xmlns="http://www.w3.org/2000/svg">
<path d="M1181.6 235.493C1127.07 306.793 1440.5 237 1440.5 203C1440.5 169 1440.5 182 1440.5 142.245L0.354919 142L0.49996 276.5C0.499851 303.975 338.935 124.353 345.075 243.017C352.159 379.922 846.364 92.9183 774.854 202.945C703.343 312.971 1266.91 123.953 1181.6 235.493Z" fill="#9470B1"/>
<path d="M266.166 62.3434C318.855 -9.3825 0.355034 61.5 0.354969 97C0.354903 132.5 0.499967 119.5 0.49996 160L1440.5 142.245V3.49998C1440.5 -25 1111.27 163.35 1102.11 45.1038C1091.54 -91.3176 604.881 200.599 673.553 90.0619C742.225 -20.4747 183.741 174.551 266.166 62.3434Z" fill="#9470B1"/>
</svg>
